<?xml version="1.0" encoding="utf-8"?>
<!-- Generator: Adobe Illustrator 19.1.0, SVG Export Plug-In . SVG Version: 6.00 Build 0)  -->
<svg version="1.1" id="Layer_1" xmlns="http://www.w3.org/2000/svg" xmlns:xlink="http://www.w3.org/1999/xlink" x="0px" y="0px"
	 viewBox="0 0 64 64" enable-background="new 0 0 64 64" xml:space="preserve">
<g id="Column-Diagram">
	<path d="M63,58H3.8379056c-0.4932048,0-0.9571049-0.1884995-1.306705-0.5312004
		c-0.3427999-0.3359985-0.5311999-0.7832985-0.5311999-1.2579002V5c0-0.5527-0.4473-1-0.9999999-1c-0.5528001,0-1,0.4473-1,1
		v51.2108994c0,1.0157013,0.4013,1.969799,1.1307999,2.6856003C1.8554008,59.6083984,2.8173008,60,3.8379056,60H63
		c0.5527,0,1-0.4473,1-1S63.5527,58,63,58z"/>
	<path d="M13.000001,52H19c1.1025009,0,2-0.8974991,2-2V30c0-1.1025009-0.8974991-2-2-2h-5.999999c-1.1026001,0-2,0.8974991-2,2v20
		C11.000001,51.1025009,11.8974009,52,13.000001,52z M13.000001,30H19l0.0019054,20H13.000001V30z"/>
	<path d="M27,52h6c1.1025009,0,2-0.8974991,2-2V22c0-1.1025009-0.8974991-2-2-2h-6c-1.1026001,0-2,0.8974991-2,2v28
		C25,51.1025009,25.8973999,52,27,52z M27,22h6l0.0019073,28H27V22z"/>
	<path d="M41,52h6c1.1025009,0,2-0.8974991,2-2V14c0-1.1025-0.8974991-2-2-2h-6c-1.1026001,0-2,0.8975-2,2v36
		C39,51.1025009,39.8973999,52,41,52z M41,14h6l0.0019073,36H41V14z"/>
</g>
<g>
</g>
<g>
</g>
<g>
</g>
<g>
</g>
<g>
</g>
<g>
</g>
<g>
</g>
<g>
</g>
<g>
</g>
<g>
</g>
<g>
</g>
<g>
</g>
<g>
</g>
<g>
</g>
<g>
</g>
</svg>
