<?xml version="1.0" encoding="utf-8"?>
<!-- Generator: Adobe Illustrator 19.1.0, SVG Export Plug-In . SVG Version: 6.00 Build 0)  -->
<svg version="1.1" id="Layer_1" xmlns="http://www.w3.org/2000/svg" xmlns:xlink="http://www.w3.org/1999/xlink" x="0px" y="0px"
	 viewBox="0 0 64 64" enable-background="new 0 0 64 64" xml:space="preserve">
<g id="Point-Diagram">
	<path d="M60,7H4c-2.2091112,0-4,1.7908001-4,4v42c0,2.2090988,1.7908887,4,4,4h56c2.2091866,0,4-1.7909012,4-4V11
		C64,8.7908001,62.2091866,7,60,7z M62,53c0,1.1027985-0.897213,2-2,2H4c-1.1027114,0-2-0.8972015-2-2V11
		c0-1.1028004,0.8972886-2,2-2h56c1.102787,0,2,0.8971996,2,2V53z"/>
	<path d="M50.7772865,13.7589998c-2.7613983,0-5,2.2385998-5,5.000001c0,2.1423988,1.3540001,3.9554996,3.2478027,4.6672993
		l-3.6512032,15.3928986c-0.197998-0.0238991-0.3921967-0.0601997-0.5965996-0.0601997
		c-0.6425972,0-1.2518997,0.1318016-1.816288,0.3526001l-6.3419113-10.1881981
		c0.7126999-0.8641014,1.1581993-1.9568005,1.1581993-3.1644001c0-2.7614002-2.2384987-5-5-5
		c-2.7613983,0-4.9999981,2.2385998-4.9999981,5c0,1.8230991,0.9860001,3.4022999,2.4437122,4.2758999l-3.3153133,9.8632011
		c-0.3639984-0.084301-0.7388-0.1391029-1.1283989-0.1391029c-1.3248005,0-2.521101,0.524601-3.4157009,1.3656998
		l-6.3963995-5.6469994c0.5096006-0.7835007,0.8121004-1.7143974,0.8121004-2.7187004c0-2.7613983-2.2384996-4.9999981-5-4.9999981
		c-2.7614002,0-5,2.2385998-5,4.9999981c0,2.7614021,2.2385998,5,5,5c1.0319996,0,1.9904003-0.3134003,2.7867994-0.8490982
		l6.6321001,5.8550987c-0.2667007,0.611599-0.4188995,1.2843018-0.4188995,1.9939995c0,2.7614021,2.2385998,5,5,5
		c2.7614994,0,5-2.2385979,5-5c0-1.6516991-0.8107014-3.1044998-2.0454006-4.0149002l3.3787003-10.0522995
		c0.2202988,0.0297012,0.4383011,0.0672016,0.6666985,0.0672016c0.8236008,0,1.5890007-0.2181015,2.2741013-0.5708008
		l6.2276115,10.0045986c-0.9249992,0.907402-1.5017128,2.1682014-1.5017128,3.5662003c0,2.7614021,2.2386017,5,5,5
		c2.7615013,0,5-2.2385979,5-5c0-1.8456001-1.0112877-3.4398003-2.4990997-4.3059998L50.9892883,23.8076
		c0.0057106-0.0237007-0.0014992-0.0464001,0.0023994-0.0702c2.6597977-0.1147003,4.7855988-2.2903996,4.7855988-4.9783993
		C55.7772865,15.9975996,53.5387878,13.7589998,50.7772865,13.7589998z M8.7772884,32.7589989
		c0-1.6541996,1.3458996-2.9999981,3-2.9999981c1.6542997,0,3,1.3457985,3,2.9999981c0,1.6542015-1.3457003,3-3,3
		C10.123188,35.7589989,8.7772884,34.4132004,8.7772884,32.7589989z M25.7772884,47.7589989c-1.6541004,0-3-1.3457985-3-3
		c0-1.6541977,1.3458996-3,3-3c1.6542988,0,3,1.3458023,3,3C28.7772884,46.4132004,27.4315872,47.7589989,25.7772884,47.7589989z
		 M29.7772884,25.7590008c0-1.6542015,1.3458996-3,2.9999981-3c1.6543007,0,3,1.3457985,3,3c0,1.6541996-1.3456993,3-3,3
		C31.123188,28.7590008,29.7772884,27.4132004,29.7772884,25.7590008z M44.7772865,46.7589989c-1.6540985,0-3-1.3457985-3-3
		c0-1.6541977,1.3459015-3,3-3c1.6543007,0,3,1.3458023,3,3C47.7772865,45.4132004,46.4315872,46.7589989,44.7772865,46.7589989z
		 M50.7772865,21.7590008c-1.6540985,0-3-1.3458004-3-3c0-1.6542015,1.3459015-3.000001,3-3.000001
		c1.6543007,0,3,1.3457994,3,3.000001C53.7772865,20.4132004,52.4315872,21.7590008,50.7772865,21.7590008z"/>
</g>
<g>
</g>
<g>
</g>
<g>
</g>
<g>
</g>
<g>
</g>
<g>
</g>
<g>
</g>
<g>
</g>
<g>
</g>
<g>
</g>
<g>
</g>
<g>
</g>
<g>
</g>
<g>
</g>
<g>
</g>
</svg>
